<svg width="93" height="91" viewBox="0 0 93 91" fill="none" xmlns="http://www.w3.org/2000/svg">
<path d="M37.5326 28.0349C37.3544 26.3603 38.3944 24.7953 40.0074 24.3113L45.6308 22.6239C45.7696 22.5821 45.884 22.4821 45.9434 22.3499L46.594 20.8988C46.6637 20.7428 46.6498 20.5613 46.5557 20.4187L43.4335 15.6897C42.4874 14.2565 42.7208 12.3488 43.9847 11.186L47.9889 7.50174C49.1771 6.40911 50.9593 6.2707 52.3019 7.16684L56.7839 10.159C56.9309 10.2571 57.1193 10.2702 57.2786 10.1936L58.9647 9.38148C59.0858 9.32292 59.1786 9.21744 59.2214 9.08995L60.6284 4.89379C61.144 3.35766 62.6469 2.3756 64.2607 2.52092L70.964 3.12455C72.2547 3.24109 73.2426 4.3252 73.2394 5.62112L73.2299 9.3099C73.2296 9.42623 73.2704 9.53887 73.3444 9.62866L75.1095 11.7701C75.241 11.9294 75.4575 11.9914 75.6536 11.9262L80.8225 10.2047C82.4329 9.66852 84.1964 10.3647 85.0055 11.8567L87.9319 17.2547C88.7569 18.7765 88.3451 20.6733 86.9636 21.7164L84.4121 23.6422C84.2721 23.7478 84.1974 23.9198 84.2158 24.0942L84.4687 26.4675C84.4837 26.6084 84.5584 26.7368 84.6732 26.8199L88.4352 29.544C89.6566 30.4284 90.1741 31.9958 89.7198 33.4337L87.9446 39.0499C87.4211 40.705 85.7628 41.7265 84.049 41.4499L80.7973 40.9243C80.6572 40.9017 80.5133 40.94 80.4029 41.0292L78.1001 42.8931C77.9909 42.9815 77.9238 43.1123 77.9155 43.2525L77.6055 48.5732C77.532 49.8343 76.7839 50.9585 75.6492 51.5138L70.2232 54.1682C68.5498 54.9866 66.5287 54.3505 65.6251 52.7215L63.3847 48.6832C63.3221 48.5704 63.2178 48.486 63.0945 48.448L61.2596 47.8824C61.0803 47.8273 60.8847 47.8775 60.7539 48.0119L57.0607 51.8222C55.9369 52.9813 54.1657 53.2208 52.7738 52.4028L47.7669 49.4607C46.5466 48.7433 45.8791 47.3611 46.0748 45.9592L46.9751 39.515C46.9909 39.4011 46.9664 39.2847 46.9067 39.1864L45.4059 36.7153C45.3054 36.55 45.1173 36.4574 44.9249 36.4778L41.9855 36.7911C40.0636 36.9959 38.3394 35.6036 38.1344 33.6817L37.5326 28.0349ZM56.8643 29.5388C57.2834 33.4718 60.8111 36.3207 64.744 35.9018C68.6772 35.4827 71.526 31.9542 71.1069 28.0211C70.6876 24.0881 67.1593 21.2401 63.2263 21.6592C59.2935 22.0785 56.4454 25.606 56.8643 29.5388Z" fill="#CACACA"/>
<path d="M37.5326 28.0349L35.0467 28.2995L35.0467 28.2998L37.5326 28.0349ZM40.0074 24.3113L40.7259 26.7058L40.726 26.7058L40.0074 24.3113ZM45.6308 22.6239L46.3493 25.0184L46.3516 25.0177L45.6308 22.6239ZM45.9434 22.3499L48.2239 23.3742L48.2246 23.3728L45.9434 22.3499ZM46.594 20.8988L48.8752 21.9217L48.8766 21.9186L46.594 20.8988ZM46.5557 20.4187L48.642 19.0413L48.642 19.0413L46.5557 20.4187ZM43.4335 15.6897L41.347 17.067L41.3471 17.0672L43.4335 15.6897ZM43.9847 11.186L45.6773 13.0259L45.6775 13.0258L43.9847 11.186ZM47.9889 7.50174L46.2967 5.66153L46.2962 5.66201L47.9889 7.50174ZM52.3019 7.16684L53.69 5.08761L53.6898 5.08747L52.3019 7.16684ZM56.7839 10.159L55.3958 12.2382L55.3959 12.2383L56.7839 10.159ZM57.2786 10.1936L58.362 12.4467L58.3635 12.446L57.2786 10.1936ZM58.9647 9.38148L60.0496 11.6338L60.0534 11.632L58.9647 9.38148ZM59.2214 9.08995L61.5913 9.88591L61.5917 9.88474L59.2214 9.08995ZM60.6284 4.89379L58.2584 4.09834L58.2582 4.099L60.6284 4.89379ZM64.2607 2.52092L64.485 0.0309944L64.4849 0.0309952L64.2607 2.52092ZM70.964 3.12455L71.1888 0.63468L71.1882 0.634623L70.964 3.12455ZM73.2394 5.62112L75.7394 5.6276L75.7394 5.6272L73.2394 5.62112ZM73.2299 9.3099L70.7299 9.30342L70.7299 9.30536L73.2299 9.3099ZM73.3444 9.62866L71.4151 11.2187L71.4153 11.2188L73.3444 9.62866ZM75.1095 11.7701L73.1804 13.3602L73.1812 13.3611L75.1095 11.7701ZM75.6536 11.9262L76.4426 14.2984L76.4435 14.2981L75.6536 11.9262ZM80.8225 10.2047L80.0327 7.83274L80.0326 7.8328L80.8225 10.2047ZM85.0055 11.8567L87.2033 10.6652L87.2032 10.665L85.0055 11.8567ZM87.9319 17.2547L90.1297 16.0633L90.1297 16.0633L87.9319 17.2547ZM86.9636 21.7164L88.4697 23.7119L88.4701 23.7115L86.9636 21.7164ZM84.4121 23.6422L82.9061 21.6467L82.906 21.6468L84.4121 23.6422ZM84.2158 24.0942L81.7295 24.3557L81.7298 24.3592L84.2158 24.0942ZM84.4687 26.4675L86.9546 26.2026L84.4687 26.4675ZM84.6732 26.8199L83.2067 28.8446L83.2069 28.8448L84.6732 26.8199ZM88.4352 29.544L86.9689 31.5689L86.9691 31.569L88.4352 29.544ZM89.7198 33.4337L92.1036 34.1872L92.1037 34.1869L89.7198 33.4337ZM87.9446 39.0499L90.3282 39.8038L90.3283 39.8034L87.9446 39.0499ZM84.049 41.4499L83.6501 43.9178L83.6507 43.9179L84.049 41.4499ZM80.7973 40.9243L81.1962 38.4563L81.1958 38.4562L80.7973 40.9243ZM80.4029 41.0292L78.8326 39.0839L78.83 39.086L80.4029 41.0292ZM78.1001 42.8931L79.6728 44.8364L79.673 44.8363L78.1001 42.8931ZM77.9155 43.2525L75.4199 43.1039L75.4197 43.1071L77.9155 43.2525ZM77.6055 48.5732L80.1012 48.7186L80.1012 48.7186L77.6055 48.5732ZM75.6492 51.5138L76.7478 53.7595L76.7481 53.7593L75.6492 51.5138ZM70.2232 54.1682L71.3215 56.414L71.3218 56.4139L70.2232 54.1682ZM65.6251 52.7215L67.8112 51.5088L67.8112 51.5087L65.6251 52.7215ZM63.3847 48.6832L65.5709 47.4704L65.5702 47.4692L63.3847 48.6832ZM63.0945 48.448L62.3581 50.8371L62.3584 50.8372L63.0945 48.448ZM61.2596 47.8824L61.996 45.4933L61.9942 45.4928L61.2596 47.8824ZM60.7539 48.0119L58.9623 46.2683L58.9587 46.272L60.7539 48.0119ZM57.0607 51.8222L58.8556 53.5624L58.8558 53.5622L57.0607 51.8222ZM52.7738 52.4028L54.0406 50.2475L54.0404 50.2473L52.7738 52.4028ZM47.7669 49.4607L46.4999 51.6159L46.5004 51.6162L47.7669 49.4607ZM46.0748 45.9592L43.5988 45.6133L43.5988 45.6135L46.0748 45.9592ZM46.9751 39.515L49.4511 39.8609L49.4515 39.8582L46.9751 39.515ZM46.9067 39.1864L49.044 37.8895L49.0435 37.8887L46.9067 39.1864ZM45.4059 36.7153L47.5427 35.4176L47.5416 35.4158L45.4059 36.7153ZM44.9249 36.4778L44.6615 33.9918L44.66 33.9919L44.9249 36.4778ZM41.9855 36.7911L42.2504 39.277L42.2505 39.277L41.9855 36.7911ZM38.1344 33.6817L35.6484 33.9466L35.6485 33.9468L38.1344 33.6817ZM56.8643 29.5388L54.3784 29.8036L54.3784 29.8038L56.8643 29.5388ZM64.744 35.9018L65.0088 38.3877L65.009 38.3877L64.744 35.9018ZM71.1069 28.0211L73.5928 27.7562L73.5928 27.756L71.1069 28.0211ZM63.2263 21.6592L62.9614 19.1733L62.9612 19.1733L63.2263 21.6592ZM37.5326 28.0349L40.0186 27.7703C39.9676 27.2916 40.2653 26.844 40.7259 26.7058L40.0074 24.3113L39.289 21.9167C36.5234 22.7465 34.7412 25.429 35.0467 28.2995L37.5326 28.0349ZM40.0074 24.3113L40.726 26.7058L46.3493 25.0184L45.6308 22.6239L44.9123 20.2293L39.2889 21.9168L40.0074 24.3113ZM45.6308 22.6239L46.3516 25.0177C47.1791 24.7685 47.8655 24.1722 48.2239 23.3742L45.9434 22.3499L43.6628 21.3256C43.9025 20.7921 44.36 20.3956 44.91 20.23L45.6308 22.6239ZM45.9434 22.3499L48.2246 23.3728L48.8752 21.9217L46.594 20.8988L44.3129 19.8759L43.6622 21.3271L45.9434 22.3499ZM46.594 20.8988L48.8766 21.9186C49.2906 20.9921 49.2126 19.9057 48.642 19.0413L46.5557 20.4187L44.4693 21.7961C44.087 21.217 44.0369 20.4936 44.3115 19.879L46.594 20.8988ZM46.5557 20.4187L48.642 19.0413L45.5198 14.3123L43.4335 15.6897L41.3471 17.0672L44.4693 21.7962L46.5557 20.4187ZM43.4335 15.6897L45.5199 14.3125C45.2495 13.9029 45.3163 13.358 45.6773 13.0259L43.9847 11.186L42.2921 9.34618C40.1254 11.3395 39.7253 14.6101 41.347 17.067L43.4335 15.6897ZM43.9847 11.186L45.6775 13.0258L49.6817 9.34146L47.9889 7.50174L46.2962 5.66201L42.292 9.34632L43.9847 11.186ZM47.9889 7.50174L49.6811 9.34195C50.0206 9.02977 50.5304 8.99018 50.914 9.24621L52.3019 7.16684L53.6898 5.08747C51.3882 3.55122 48.3336 3.78846 46.2967 5.66153L47.9889 7.50174ZM52.3019 7.16684L50.9138 9.24608L55.3958 12.2382L56.7839 10.159L58.172 8.07971L53.69 5.08761L52.3019 7.16684ZM56.7839 10.159L55.3959 12.2383C56.279 12.8278 57.4071 12.9058 58.362 12.4467L57.2786 10.1936L56.1952 7.94058C56.8315 7.63463 57.5828 7.68644 58.1718 8.07962L56.7839 10.159ZM57.2786 10.1936L58.3635 12.446L60.0496 11.6338L58.9647 9.38148L57.8799 7.12914L56.1937 7.94129L57.2786 10.1936ZM58.9647 9.38148L60.0534 11.632C60.7808 11.2801 61.3348 10.6497 61.5913 9.88591L59.2214 9.08995L56.8515 8.29398C57.0224 7.78513 57.3908 7.36572 57.8761 7.13097L58.9647 9.38148ZM59.2214 9.08995L61.5917 9.88474L62.9987 5.68858L60.6284 4.89379L58.2582 4.099L56.8511 8.29516L59.2214 9.08995ZM60.6284 4.89379L62.9985 5.68924C63.146 5.24989 63.5759 4.96937 64.0365 5.01085L64.2607 2.52092L64.4849 0.0309952C61.7178 -0.218175 59.142 1.46543 58.2584 4.09834L60.6284 4.89379ZM64.2607 2.52092L64.0365 5.01085L70.7398 5.61448L70.964 3.12455L71.1882 0.634623L64.485 0.0309944L64.2607 2.52092ZM70.964 3.12455L70.7392 5.61442L70.7394 5.61504L73.2394 5.62112L75.7394 5.6272C75.7457 3.0358 73.7706 0.867806 71.1888 0.63468L70.964 3.12455ZM73.2394 5.62112L70.7394 5.61464L70.7299 9.30342L73.2299 9.3099L75.7298 9.31638L75.7394 5.6276L73.2394 5.62112ZM73.2299 9.3099L70.7299 9.30536C70.7286 10.0091 70.9748 10.6844 71.4151 11.2187L73.3444 9.62866L75.2736 8.03866C75.5659 8.39335 75.7307 8.84332 75.7299 9.31444L73.2299 9.3099ZM73.3444 9.62866L71.4153 11.2188L73.1804 13.3602L75.1095 11.7701L77.0386 10.1799L75.2734 8.0385L73.3444 9.62866ZM75.1095 11.7701L73.1812 13.3611C73.9717 14.3193 75.2688 14.6888 76.4426 14.2984L75.6536 11.9262L74.8645 9.55398C75.6462 9.29397 76.5103 9.53959 77.0379 10.179L75.1095 11.7701ZM75.6536 11.9262L76.4435 14.2981L81.6125 12.5766L80.8225 10.2047L80.0326 7.8328L74.8636 9.55428L75.6536 11.9262ZM80.8225 10.2047L81.6123 12.5767C82.0731 12.4233 82.577 12.6228 82.8078 13.0484L85.0055 11.8567L87.2032 10.665C85.8158 8.10658 82.7927 6.91379 80.0327 7.83274L80.8225 10.2047ZM85.0055 11.8567L82.8077 13.0482L85.734 18.4462L87.9319 17.2547L90.1297 16.0633L87.2033 10.6652L85.0055 11.8567ZM87.9319 17.2547L85.734 18.4462C85.9696 18.8807 85.8521 19.4231 85.4571 19.7213L86.9636 21.7164L88.4701 23.7115C90.838 21.9236 91.5441 18.6724 90.1297 16.0633L87.9319 17.2547ZM86.9636 21.7164L85.4576 19.721L82.9061 21.6467L84.4121 23.6422L85.9182 25.6376L88.4697 23.7119L86.9636 21.7164ZM84.4121 23.6422L82.906 21.6468C82.0663 22.2806 81.6194 23.3089 81.7295 24.3557L84.2158 24.0942L86.7021 23.8328C86.7755 24.5308 86.478 25.2151 85.9183 25.6375L84.4121 23.6422ZM84.2158 24.0942L81.7298 24.3592L81.9827 26.7324L84.4687 26.4675L86.9546 26.2026L86.7017 23.8293L84.2158 24.0942ZM84.4687 26.4675L81.9827 26.7324C82.0733 27.5821 82.5216 28.3483 83.2067 28.8446L84.6732 26.8199L86.1397 24.7952C86.5953 25.1252 86.8941 25.6347 86.9546 26.2026L84.4687 26.4675ZM84.6732 26.8199L83.2069 28.8448L86.9689 31.5689L88.4352 29.544L89.9014 27.5191L86.1394 24.795L84.6732 26.8199ZM88.4352 29.544L86.9691 31.569C87.3177 31.8214 87.4659 32.2693 87.336 32.6805L89.7198 33.4337L92.1037 34.1869C92.8823 31.7224 91.9955 29.0353 89.9013 27.519L88.4352 29.544ZM89.7198 33.4337L87.3361 32.6802L85.5608 38.2964L87.9446 39.0499L90.3283 39.8034L92.1036 34.1872L89.7198 33.4337ZM87.9446 39.0499L85.561 38.296C85.4115 38.7685 84.9374 39.0609 84.4474 38.9818L84.049 41.4499L83.6507 43.9179C86.5881 44.392 89.4307 42.6415 90.3282 39.8038L87.9446 39.0499ZM84.049 41.4499L84.4479 38.9819L81.1962 38.4563L80.7973 40.9243L80.3984 43.3923L83.6501 43.9178L84.049 41.4499ZM80.7973 40.9243L81.1958 38.4562C80.3529 38.3202 79.4937 38.5502 78.8326 39.0839L80.4029 41.0292L81.9732 42.9745C81.5329 43.3298 80.9614 43.4832 80.3988 43.3923L80.7973 40.9243ZM80.4029 41.0292L78.83 39.086L76.5273 40.9498L78.1001 42.8931L79.673 44.8363L81.9757 42.9724L80.4029 41.0292ZM78.1001 42.8931L76.5274 40.9497C75.8699 41.4818 75.4699 42.265 75.4199 43.1039L77.9155 43.2525L80.4111 43.4012C80.3778 43.9595 80.1119 44.4811 79.6728 44.8364L78.1001 42.8931ZM77.9155 43.2525L75.4197 43.1071L75.1097 48.4277L77.6055 48.5732L80.1012 48.7186L80.4113 43.398L77.9155 43.2525ZM77.6055 48.5732L75.1097 48.4277C75.0887 48.7877 74.8748 49.1095 74.5504 49.2683L75.6492 51.5138L76.7481 53.7593C78.693 52.8076 79.9752 50.8809 80.1012 48.7186L77.6055 48.5732ZM75.6492 51.5138L74.5507 49.2681L69.1246 51.9225L70.2232 54.1682L71.3218 56.4139L76.7478 53.7595L75.6492 51.5138ZM70.2232 54.1682L69.1249 51.9224C68.6472 52.156 68.0697 51.9746 67.8112 51.5088L65.6251 52.7215L63.4389 53.9342C64.9877 56.7263 68.4524 57.8172 71.3215 56.414L70.2232 54.1682ZM65.6251 52.7215L67.8112 51.5087L65.5708 47.4704L63.3847 48.6832L61.1986 49.896L63.439 53.9343L65.6251 52.7215ZM63.3847 48.6832L65.5702 47.4692C65.1936 46.7913 64.5695 46.2865 63.8306 46.0588L63.0945 48.448L62.3584 50.8372C61.8662 50.6855 61.4505 50.3495 61.1993 49.8972L63.3847 48.6832ZM63.0945 48.448L63.8309 46.0589L61.996 45.4933L61.2596 47.8824L60.5232 50.2715L62.3581 50.8371L63.0945 48.448ZM61.2596 47.8824L61.9942 45.4928C60.9163 45.1614 59.7459 45.4632 58.9623 46.2683L60.7539 48.0119L62.5455 49.7555C62.0235 50.2918 61.2442 50.4932 60.5249 50.272L61.2596 47.8824ZM60.7539 48.0119L58.9587 46.272L55.2655 50.0822L57.0607 51.8222L58.8558 53.5622L62.549 49.7519L60.7539 48.0119ZM57.0607 51.8222L55.2657 50.082C54.9453 50.4126 54.439 50.4817 54.0406 50.2475L52.7738 52.4028L51.507 54.5581C53.8923 55.96 56.9285 55.5501 58.8556 53.5624L57.0607 51.8222ZM52.7738 52.4028L54.0404 50.2473L49.0334 47.3053L47.7669 49.4607L46.5004 51.6162L51.5073 54.5582L52.7738 52.4028ZM47.7669 49.4607L49.0339 47.3056C48.686 47.101 48.4947 46.7063 48.5508 46.3049L46.0748 45.9592L43.5988 45.6135C43.2634 48.016 44.4072 50.3856 46.4999 51.6159L47.7669 49.4607ZM46.0748 45.9592L48.5507 46.3051L49.4511 39.8609L46.9751 39.515L44.4992 39.1691L43.5988 45.6133L46.0748 45.9592ZM46.9751 39.515L49.4515 39.8582C49.5472 39.1676 49.398 38.473 49.044 37.8895L46.9067 39.1864L44.7694 40.4833C44.5347 40.0965 44.4347 39.6346 44.4988 39.1718L46.9751 39.515ZM46.9067 39.1864L49.0435 37.8887L47.5427 35.4176L45.4059 36.7153L43.2692 38.0131L44.7699 40.4841L46.9067 39.1864ZM45.4059 36.7153L47.5416 35.4158C46.9362 34.4209 45.812 33.8698 44.6615 33.9918L44.9249 36.4778L45.1884 38.9639C44.4227 39.0451 43.6745 38.6792 43.2703 38.0149L45.4059 36.7153ZM44.9249 36.4778L44.66 33.9919L41.7206 34.3052L41.9855 36.7911L42.2505 39.277L45.1899 38.9638L44.9249 36.4778ZM41.9855 36.7911L41.7206 34.3052C41.1718 34.3636 40.6789 33.9659 40.6203 33.4165L38.1344 33.6817L35.6485 33.9468C35.9999 37.2412 38.9553 39.6282 42.2504 39.277L41.9855 36.7911ZM38.1344 33.6817L40.6203 33.4167L40.0185 27.77L37.5326 28.0349L35.0467 28.2998L35.6484 33.9466L38.1344 33.6817ZM56.8643 29.5388L54.3784 29.8038C54.9438 35.1094 59.7028 38.9528 65.0088 38.3877L64.744 35.9018L64.4793 33.4158C61.9195 33.6885 59.6231 31.8342 59.3502 29.2739L56.8643 29.5388ZM64.744 35.9018L65.009 38.3877C70.315 37.8223 74.1583 33.0622 73.5928 27.7562L71.1069 28.0211L68.621 28.286C68.8938 30.8461 67.0393 33.143 64.4791 33.4159L64.744 35.9018ZM71.1069 28.0211L73.5928 27.756C73.0271 22.4499 68.267 18.6079 62.9614 19.1733L63.2263 21.6592L63.4912 24.1451C66.0516 23.8723 68.3481 25.7263 68.621 28.2861L71.1069 28.0211ZM63.2263 21.6592L62.9612 19.1733C57.6557 19.739 53.8132 24.4979 54.3784 29.8036L56.8643 29.5388L59.3502 29.274C59.0775 26.7141 60.9313 24.4181 63.4913 24.1451L63.2263 21.6592Z" fill="#424242"/>
<path d="M54.8302 78.7116C54.8302 91.0643 3.26367 90.1819 3.26367 78.7116C3.26367 78.7116 3.26417 73.4703 3.2645 66.5553L3.26479 55.9673C3.26481 50.015 3.26454 44.0736 3.26367 39.791C3.26116 27.3404 54.8302 27.3406 54.8302 39.791V55.9673V66.5553V78.7116Z" fill="#D57676"/>
<path d="M3.26367 39.791C3.26116 27.3404 54.8302 27.3406 54.8302 39.791M3.26367 39.791C3.26476 52.1439 54.8302 52.1439 54.8302 39.791M3.26367 39.791C3.26454 44.0736 3.26481 50.015 3.26479 55.9673M54.8302 39.791C54.8302 44.0736 54.8302 50.015 54.8302 55.9673M3.26479 55.9673C16.008 66.1631 54.8302 60.8692 54.8302 55.9673M3.26479 55.9673C3.26478 59.6194 3.26466 63.2756 3.2645 66.5553M54.8302 55.9673C54.8302 59.6194 54.8302 63.2756 54.8302 66.5553M3.2645 66.5553C3.26417 73.4703 3.26367 78.7116 3.26367 78.7116C3.26367 90.1819 54.8302 91.0642 54.8302 78.7116C54.8302 78.7116 54.8302 73.4703 54.8302 66.5553M3.2645 66.5553C3.26376 77.7315 54.8302 77.3393 54.8302 66.5553" stroke="#522C2C" stroke-width="5"/>
</svg>
