<svg width="101" height="84" viewBox="0 0 101 84" fill="none" xmlns="http://www.w3.org/2000/svg">
<path d="M45.5473 28.2935C45.3689 26.6188 46.4089 25.0539 48.0221 24.5699L53.6455 22.8825C53.7843 22.8407 53.8987 22.7408 53.9581 22.6086L54.6088 21.1574C54.6786 21.0014 54.6646 20.8201 54.5704 20.6773L51.4482 15.9484C50.5019 14.5151 50.7355 12.6074 51.9994 11.4447L56.0036 7.76035C57.1918 6.66756 58.9739 6.52922 60.3166 7.42546L64.7986 10.4176C64.9456 10.5156 65.1341 10.5288 65.2933 10.4522L66.9794 9.6401C67.1006 9.58155 67.1933 9.4761 67.2361 9.34856L68.6432 5.1524C69.1586 3.61607 70.6615 2.6342 72.2754 2.77954L78.9787 3.38316C80.2695 3.49976 81.2575 4.58366 81.2541 5.87974L81.2446 9.56851C81.2444 9.68493 81.285 9.79745 81.3591 9.88728L83.1242 12.0287C83.2557 12.188 83.4723 12.25 83.6683 12.1848L88.8372 10.4633C90.4477 9.92705 92.2112 10.6231 93.0202 12.1153L95.9466 17.5133C96.7716 19.0352 96.3599 20.932 94.9784 21.975L92.4268 23.9008C92.2867 24.0065 92.212 24.1783 92.2305 24.3529L92.4834 26.7261C92.4984 26.8671 92.5731 26.9954 92.6879 27.0785L96.4499 29.8026C97.6713 30.6871 98.189 32.2544 97.7345 33.6923L95.9593 39.3085C95.4358 40.9636 93.7774 41.985 92.0638 41.7085L88.812 41.1829C88.6718 41.1603 88.5281 41.1985 88.4176 41.2878L86.1148 43.1517C86.0055 43.2402 85.9384 43.3707 85.9302 43.5111L85.6202 48.8318C85.5467 50.093 84.7987 51.2172 83.6639 51.7724L78.2379 54.4268C76.5645 55.2452 74.5434 54.6091 73.6398 52.9801L71.3994 48.9418C71.3368 48.8289 71.2326 48.7447 71.1092 48.7066L69.2743 48.141C69.0949 48.0859 68.8994 48.136 68.7686 48.2706L65.0754 52.0808C63.9516 53.2399 62.1803 53.4793 60.7885 52.6614L55.7816 49.7193C54.5613 49.0019 53.8938 47.6198 54.0895 46.2178L54.9898 39.7736C55.0057 39.6596 54.9811 39.5434 54.9214 39.445L53.4207 36.9739C53.3201 36.8085 53.1321 36.7161 52.9397 36.7365L50.0002 37.0497C48.0783 37.2545 46.3541 35.8622 46.1491 33.9403L45.5473 28.2935ZM64.879 29.7975C65.2982 33.7304 68.8259 36.5793 72.7588 36.1604C76.6918 35.7413 79.5407 32.2127 79.1216 28.2797C78.7025 24.3466 75.174 21.4977 71.2409 21.9168C67.308 22.3362 64.4599 25.8645 64.879 29.7975Z" fill="#CACACA"/>
<path d="M45.5473 28.2935L43.0614 28.5584L43.0614 28.5585L45.5473 28.2935ZM48.0221 24.5699L48.7406 26.9644L48.7407 26.9644L48.0221 24.5699ZM53.6455 22.8825L54.364 25.277L54.3659 25.2764L53.6455 22.8825ZM53.9581 22.6086L56.2386 23.6329L56.2393 23.6314L53.9581 22.6086ZM54.6088 21.1574L56.8899 22.1803L56.8906 22.1789L54.6088 21.1574ZM54.5704 20.6773L56.6569 19.3003L56.6567 19.2999L54.5704 20.6773ZM51.4482 15.9484L49.3618 17.3257L49.3619 17.3258L51.4482 15.9484ZM51.9994 11.4447L53.692 13.2845L53.6922 13.2844L51.9994 11.4447ZM56.0036 7.76035L54.3113 5.92026L54.3109 5.92062L56.0036 7.76035ZM60.3166 7.42546L61.7047 5.34622L61.7046 5.34612L60.3166 7.42546ZM64.7986 10.4176L63.4105 12.4968L63.4114 12.4974L64.7986 10.4176ZM65.2933 10.4522L66.3767 12.7053L66.3782 12.7046L65.2933 10.4522ZM66.9794 9.6401L68.0643 11.8924L68.0675 11.8909L66.9794 9.6401ZM67.2361 9.34856L69.606 10.1445L69.6064 10.1434L67.2361 9.34856ZM68.6432 5.1524L66.273 4.35721L66.2729 4.35761L68.6432 5.1524ZM72.2754 2.77954L72.4997 0.289609L72.4997 0.28961L72.2754 2.77954ZM78.9787 3.38316L79.2036 0.893302L79.2029 0.893238L78.9787 3.38316ZM81.2541 5.87974L78.7541 5.87325L78.7541 5.87326L81.2541 5.87974ZM81.2446 9.56851L78.7446 9.56203L78.7446 9.56397L81.2446 9.56851ZM81.3591 9.88728L83.2882 8.29712L83.2875 8.29635L81.3591 9.88728ZM83.1242 12.0287L81.1951 13.6188L81.1963 13.6202L83.1242 12.0287ZM83.6683 12.1848L84.4573 14.557L84.4582 14.5567L83.6683 12.1848ZM88.8372 10.4633L88.0474 8.09137L88.0473 8.09141L88.8372 10.4633ZM93.0202 12.1153L95.218 10.9238L95.218 10.9238L93.0202 12.1153ZM95.9466 17.5133L98.1444 16.3219L98.1444 16.3219L95.9466 17.5133ZM94.9784 21.975L96.4844 23.9705L96.4847 23.9702L94.9784 21.975ZM92.4268 23.9008L90.9208 21.9053L90.9207 21.9054L92.4268 23.9008ZM92.2305 24.3529L89.7444 24.6164L89.7445 24.6178L92.2305 24.3529ZM92.4834 26.7261L94.9693 26.4612L92.4834 26.7261ZM92.6879 27.0785L94.1541 25.0536L94.154 25.0535L92.6879 27.0785ZM96.4499 29.8026L94.9836 31.8275L94.9837 31.8276L96.4499 29.8026ZM97.7345 33.6923L100.118 34.4458L100.118 34.4458L97.7345 33.6923ZM95.9593 39.3085L98.3429 40.0625L98.3431 40.062L95.9593 39.3085ZM92.0638 41.7085L91.6649 44.1764L91.6655 44.1765L92.0638 41.7085ZM88.812 41.1829L89.2109 38.7149L89.2105 38.7149L88.812 41.1829ZM88.4176 41.2878L86.8464 39.3432L86.8447 39.3446L88.4176 41.2878ZM86.1148 43.1517L87.6875 45.095L87.6877 45.0949L86.1148 43.1517ZM85.9302 43.5111L83.4345 43.3645L83.4344 43.3657L85.9302 43.5111ZM85.6202 48.8318L88.116 48.9773L88.116 48.9772L85.6202 48.8318ZM83.6639 51.7724L84.7625 54.0181L84.7627 54.018L83.6639 51.7724ZM78.2379 54.4268L79.3362 56.6726L79.3365 56.6725L78.2379 54.4268ZM73.6398 52.9801L75.8259 51.7674L75.8259 51.7673L73.6398 52.9801ZM71.3994 48.9418L69.2132 50.1544L69.2133 50.1546L71.3994 48.9418ZM71.1092 48.7066L71.8461 46.3177L71.8456 46.3175L71.1092 48.7066ZM69.2743 48.141L70.0107 45.752L70.009 45.7514L69.2743 48.141ZM68.7686 48.2706L66.976 46.5279L66.9734 46.5306L68.7686 48.2706ZM65.0754 52.0808L66.8703 53.821L66.8705 53.8208L65.0754 52.0808ZM60.7885 52.6614L62.0552 50.506L62.0551 50.506L60.7885 52.6614ZM55.7816 49.7193L54.5146 51.8745L54.5151 51.8748L55.7816 49.7193ZM54.0895 46.2178L51.6135 45.8719L51.6135 45.8721L54.0895 46.2178ZM54.9898 39.7736L57.4658 40.1195L57.4659 40.1189L54.9898 39.7736ZM54.9214 39.445L57.0589 38.1484L57.0582 38.1473L54.9214 39.445ZM53.4207 36.9739L55.5574 35.6762L55.5571 35.6757L53.4207 36.9739ZM52.9397 36.7365L52.6762 34.2504L52.6747 34.2505L52.9397 36.7365ZM50.0002 37.0497L50.2652 39.5356L50.2652 39.5356L50.0002 37.0497ZM46.1491 33.9403L43.6631 34.2052L43.6632 34.2055L46.1491 33.9403ZM64.879 29.7975L62.3931 30.0624L62.3931 30.0624L64.879 29.7975ZM72.7588 36.1604L73.0235 38.6463L73.0237 38.6463L72.7588 36.1604ZM79.1216 28.2797L81.6075 28.0148L81.6075 28.0148L79.1216 28.2797ZM71.2409 21.9168L70.976 19.4309L70.9758 19.4309L71.2409 21.9168ZM45.5473 28.2935L48.0333 28.0287C47.9823 27.5502 48.2796 27.1028 48.7406 26.9644L48.0221 24.5699L47.3037 22.1754C44.5383 23.0051 42.7555 25.6873 43.0614 28.5584L45.5473 28.2935ZM48.0221 24.5699L48.7407 26.9644L54.364 25.277L53.6455 22.8825L52.927 20.488L47.3036 22.1754L48.0221 24.5699ZM53.6455 22.8825L54.3659 25.2764C55.1941 25.0272 55.8803 24.4306 56.2386 23.6329L53.9581 22.6086L51.6776 21.5843C51.9171 21.051 52.3745 20.6542 52.9251 20.4885L53.6455 22.8825ZM53.9581 22.6086L56.2393 23.6314L56.8899 22.1803L54.6088 21.1574L52.3276 20.1346L51.6769 21.5857L53.9581 22.6086ZM54.6088 21.1574L56.8906 22.1789C57.3065 21.2498 57.2264 20.1631 56.6569 19.3003L54.5704 20.6773L52.4838 22.0544C52.1027 21.477 52.0507 20.753 52.327 20.136L54.6088 21.1574ZM54.5704 20.6773L56.6567 19.2999L53.5345 14.5709L51.4482 15.9484L49.3619 17.3258L52.4841 22.0548L54.5704 20.6773ZM51.4482 15.9484L53.5345 14.571C53.2642 14.1616 53.3308 13.6168 53.692 13.2845L51.9994 11.4447L50.3068 9.6048C48.1401 11.5981 47.7396 14.8686 49.3618 17.3257L51.4482 15.9484ZM51.9994 11.4447L53.6922 13.2844L57.6964 9.60008L56.0036 7.76035L54.3109 5.92062L50.3067 9.60493L51.9994 11.4447ZM56.0036 7.76035L57.696 9.60044C58.0354 9.2883 58.545 9.24865 58.9287 9.50479L60.3166 7.42546L61.7046 5.34612C59.4029 3.80978 56.3483 4.0468 54.3113 5.92026L56.0036 7.76035ZM60.3166 7.42546L58.9286 9.50469L63.4105 12.4968L64.7986 10.4176L66.1867 8.33833L61.7047 5.34622L60.3166 7.42546ZM64.7986 10.4176L63.4114 12.4974C64.2935 13.0857 65.4213 13.1647 66.3767 12.7053L65.2933 10.4522L64.2099 8.1992C64.8469 7.8929 65.5977 7.94549 66.1857 8.33771L64.7986 10.4176ZM65.2933 10.4522L66.3782 12.7046L68.0643 11.8924L66.9794 9.6401L65.8946 7.38776L64.2084 8.19991L65.2933 10.4522ZM66.9794 9.6401L68.0675 11.8909C68.7959 11.5388 69.3496 10.9079 69.606 10.1445L67.2361 9.34856L64.8662 8.5526C65.037 8.04429 65.4052 7.62431 65.8914 7.38928L66.9794 9.6401ZM67.2361 9.34856L69.6064 10.1434L71.0135 5.94719L68.6432 5.1524L66.2729 4.35761L64.8658 8.55377L67.2361 9.34856ZM68.6432 5.1524L71.0133 5.94759C71.1606 5.5085 71.5903 5.22795 72.0512 5.26946L72.2754 2.77954L72.4997 0.28961C69.7327 0.0404514 67.1566 1.72363 66.273 4.35721L68.6432 5.1524ZM72.2754 2.77954L72.0512 5.26946L78.7545 5.87309L78.9787 3.38316L79.2029 0.893238L72.4997 0.289609L72.2754 2.77954ZM78.9787 3.38316L78.7538 5.87303L78.7541 5.87325L81.2541 5.87974L83.7541 5.88623C83.7608 3.29388 81.7849 1.12647 79.2036 0.893302L78.9787 3.38316ZM81.2541 5.87974L78.7541 5.87326L78.7446 9.56203L81.2446 9.56851L83.7446 9.57499L83.7541 5.88622L81.2541 5.87974ZM81.2446 9.56851L78.7446 9.56397C78.7433 10.267 78.9889 10.9428 79.4306 11.4782L81.3591 9.88728L83.2875 8.29635C83.581 8.65214 83.7454 9.10286 83.7446 9.57305L81.2446 9.56851ZM81.3591 9.88728L79.43 11.4774L81.1951 13.6188L83.1242 12.0287L85.0533 10.4385L83.2882 8.29712L81.3591 9.88728ZM83.1242 12.0287L81.1963 13.6202C81.9864 14.5774 83.2831 14.9476 84.4573 14.557L83.6683 12.1848L82.8792 9.8126C83.6614 9.55243 84.525 9.79852 85.0522 10.4372L83.1242 12.0287ZM83.6683 12.1848L84.4582 14.5567L89.6272 12.8352L88.8372 10.4633L88.0473 8.09141L82.8783 9.8129L83.6683 12.1848ZM88.8372 10.4633L89.627 12.8353C90.0881 12.6818 90.5917 12.8813 90.8224 13.3068L93.0202 12.1153L95.218 10.9238C93.8306 8.36482 90.8073 7.17234 88.0474 8.09137L88.8372 10.4633ZM93.0202 12.1153L90.8224 13.3068L93.7487 18.7048L95.9466 17.5133L98.1444 16.3219L95.218 10.9238L93.0202 12.1153ZM95.9466 17.5133L93.7487 18.7048C93.9844 19.1395 93.8668 19.6818 93.472 19.9798L94.9784 21.975L96.4847 23.9702C98.853 22.1822 99.5587 18.9309 98.1444 16.3219L95.9466 17.5133ZM94.9784 21.975L93.4723 19.9796L90.9208 21.9053L92.4268 23.9008L93.9329 25.8962L96.4844 23.9705L94.9784 21.975ZM92.4268 23.9008L90.9207 21.9054C90.0822 22.5383 89.6331 23.5664 89.7444 24.6164L92.2305 24.3529L94.7165 24.0893C94.7909 24.7902 94.4912 25.4748 93.933 25.8962L92.4268 23.9008ZM92.2305 24.3529L89.7445 24.6178L89.9975 26.9911L92.4834 26.7261L94.9693 26.4612L94.7164 24.0879L92.2305 24.3529ZM92.4834 26.7261L89.9975 26.9911C90.088 27.8404 90.5359 28.607 91.2218 29.1035L92.6879 27.0785L94.154 25.0535C94.6102 25.3838 94.9088 25.8938 94.9693 26.4612L92.4834 26.7261ZM92.6879 27.0785L91.2216 29.1034L94.9836 31.8275L96.4499 29.8026L97.9161 27.7778L94.1541 25.0536L92.6879 27.0785ZM96.4499 29.8026L94.9837 31.8276C95.3327 32.0803 95.4806 32.5281 95.3508 32.9389L97.7345 33.6923L100.118 34.4458C100.897 31.9807 100.01 29.2938 97.9161 27.7777L96.4499 29.8026ZM97.7345 33.6923L95.3508 32.9388L93.5755 38.5551L95.9593 39.3085L98.3431 40.062L100.118 34.4458L97.7345 33.6923ZM95.9593 39.3085L93.5757 38.5546C93.4263 39.027 92.9521 39.3195 92.462 39.2404L92.0638 41.7085L91.6655 44.1765C94.6028 44.6505 97.4454 42.9001 98.3429 40.0625L95.9593 39.3085ZM92.0638 41.7085L92.4626 39.2405L89.2109 38.7149L88.812 41.1829L88.4131 43.6509L91.6649 44.1764L92.0638 41.7085ZM88.812 41.1829L89.2105 38.7149C88.3684 38.5789 87.5086 38.8081 86.8464 39.3432L88.4176 41.2878L89.9888 43.2324C89.5475 43.5889 88.9752 43.7416 88.4136 43.6509L88.812 41.1829ZM88.4176 41.2878L86.8447 39.3446L84.542 41.2084L86.1148 43.1517L87.6877 45.0949L89.9905 43.231L88.4176 41.2878ZM86.1148 43.1517L84.5421 41.2083C83.8857 41.7395 83.484 42.5226 83.4345 43.3645L85.9302 43.5111L88.4259 43.6577C88.3929 44.2189 88.1253 44.7408 87.6875 45.095L86.1148 43.1517ZM85.9302 43.5111L83.4344 43.3657L83.1244 48.6863L85.6202 48.8318L88.116 48.9772L88.426 43.6566L85.9302 43.5111ZM85.6202 48.8318L83.1244 48.6863C83.1034 49.0465 82.8895 49.3681 82.5652 49.5268L83.6639 51.7724L84.7627 54.018C86.7079 53.0662 87.9899 51.1395 88.116 48.9773L85.6202 48.8318ZM83.6639 51.7724L82.5654 49.5267L77.1393 52.1811L78.2379 54.4268L79.3365 56.6725L84.7625 54.0181L83.6639 51.7724ZM78.2379 54.4268L77.1396 52.181C76.662 52.4146 76.0844 52.2333 75.8259 51.7674L73.6398 52.9801L71.4536 54.1928C73.0025 56.9849 76.4671 58.0758 79.3362 56.6726L78.2379 54.4268ZM73.6398 52.9801L75.8259 51.7673L73.5856 47.729L71.3994 48.9418L69.2133 50.1546L71.4537 54.1929L73.6398 52.9801ZM71.3994 48.9418L73.5857 47.7293C73.2081 47.0485 72.5827 46.5449 71.8461 46.3177L71.1092 48.7066L70.3723 51.0955C69.8825 50.9444 69.4655 50.6094 69.2132 50.1544L71.3994 48.9418ZM71.1092 48.7066L71.8456 46.3175L70.0107 45.752L69.2743 48.141L68.5379 50.5301L70.3728 51.0957L71.1092 48.7066ZM69.2743 48.141L70.009 45.7514C68.932 45.4203 67.7607 45.7208 66.976 46.5279L68.7686 48.2706L70.5611 50.0132C70.0381 50.5512 69.2578 50.7514 68.5396 50.5307L69.2743 48.141ZM68.7686 48.2706L66.9734 46.5306L63.2802 50.3408L65.0754 52.0808L66.8705 53.8208L70.5637 50.0105L68.7686 48.2706ZM65.0754 52.0808L63.2804 50.3407C62.9601 50.6711 62.4538 50.7403 62.0552 50.506L60.7885 52.6614L59.5219 54.8167C61.9069 56.2184 64.9432 55.8088 66.8703 53.821L65.0754 52.0808ZM60.7885 52.6614L62.0551 50.506L57.0481 47.5639L55.7816 49.7193L54.5151 51.8748L59.522 54.8168L60.7885 52.6614ZM55.7816 49.7193L57.0486 47.5642C56.7007 47.3597 56.5094 46.965 56.5655 46.5635L54.0895 46.2178L51.6135 45.8721C51.2781 48.2746 52.4218 50.6442 54.5146 51.8745L55.7816 49.7193ZM54.0895 46.2178L56.5655 46.5637L57.4658 40.1195L54.9898 39.7736L52.5139 39.4277L51.6135 45.8719L54.0895 46.2178ZM54.9898 39.7736L57.4659 40.1189C57.5626 39.4252 57.4119 38.7303 57.0589 38.1484L54.9214 39.445L52.7839 40.7416C52.5503 40.3565 52.4488 39.8941 52.5138 39.4283L54.9898 39.7736ZM54.9214 39.445L57.0582 38.1473L55.5574 35.6762L53.4207 36.9739L51.2839 38.2717L52.7846 40.7428L54.9214 39.445ZM53.4207 36.9739L55.5571 35.6757C54.9511 34.6783 53.8255 34.1286 52.6762 34.2504L52.9397 36.7365L53.2031 39.2225C52.4388 39.3035 51.6892 38.9387 51.2842 38.2722L53.4207 36.9739ZM52.9397 36.7365L52.6747 34.2505L49.7353 34.5638L50.0002 37.0497L50.2652 39.5356L53.2046 39.2224L52.9397 36.7365ZM50.0002 37.0497L49.7353 34.5638C49.1866 34.6222 48.6936 34.2246 48.635 33.6751L46.1491 33.9403L43.6632 34.2055C44.0146 37.4998 46.97 39.8868 50.2652 39.5356L50.0002 37.0497ZM46.1491 33.9403L48.635 33.6754L48.0332 28.0286L45.5473 28.2935L43.0614 28.5585L43.6631 34.2052L46.1491 33.9403ZM64.879 29.7975L62.3931 30.0624C62.9585 35.3679 67.7175 39.2115 73.0235 38.6463L72.7588 36.1604L72.494 33.6745C69.9342 33.9471 67.6378 32.0928 67.3649 29.5325L64.879 29.7975ZM72.7588 36.1604L73.0237 38.6463C78.3297 38.0809 82.1729 33.3207 81.6075 28.0148L79.1216 28.2797L76.6357 28.5446C76.9085 31.1047 75.0539 33.4017 72.4938 33.6745L72.7588 36.1604ZM79.1216 28.2797L81.6075 28.0148C81.0421 22.7087 76.282 18.8655 70.976 19.4309L71.2409 21.9168L71.5058 24.4028C74.066 24.1299 76.3629 25.9844 76.6357 28.5446L79.1216 28.2797ZM71.2409 21.9168L70.9758 19.4309C65.6698 19.9967 61.8277 24.7568 62.3931 30.0624L64.879 29.7975L67.3649 29.5325C67.0921 26.9722 68.9462 24.6757 71.5059 24.4027L71.2409 21.9168Z" fill="#424242"/>
<path fill-rule="evenodd" clip-rule="evenodd" d="M36.662 33.1495C39.7698 33.1215 42.4301 34.204 45.4063 36.2392C45.5812 36.3586 45.7956 36.4075 46.0005 36.3776C50.1102 35.7768 53.2431 35.8105 55.9105 36.5671C58.5935 37.3284 60.7325 38.8012 62.8903 40.9415C64.0527 42.0946 65.2277 43.4481 66.4975 44.994C66.5251 45.0275 66.557 45.0593 66.5908 45.0888C70.1635 48.2099 72.897 51.4963 74.4746 54.7115C75.5814 56.9674 76.1326 59.219 75.9728 61.3648C75.812 63.5242 74.9336 65.5265 73.2712 67.2631C69.9999 70.6797 63.7419 73.0257 53.9956 73.8231C51.456 75.1942 49.3842 76.1304 47.1964 76.7444C45.0062 77.359 42.7335 77.6416 39.8014 77.7492C35.8554 79.6308 31.9942 81.1053 28.5751 81.8634C25.1994 82.6118 22.1267 82.6896 19.8263 81.6363C19.8034 81.6295 19.7784 81.6257 19.7556 81.6167C17.8258 80.8472 16.3794 80.2271 15.0593 79.243C13.7321 78.2533 12.5748 76.929 11.1317 74.8129C11.0509 74.6944 10.9368 74.5961 10.8053 74.5316C8.02135 73.1675 5.85127 71.5873 4.32645 69.7752C1.69915 66.6525 1.06904 62.9375 2.31977 58.7565C3.04383 56.3364 4.39441 53.7645 6.33013 51.0471C6.38007 50.9769 6.42117 50.8941 6.44746 50.8095C7.98045 45.8745 9.87264 42.4688 12.8827 40.2104C15.8809 37.9612 19.8765 36.9361 25.4102 36.4904C25.5071 36.4824 25.6101 36.4551 25.6975 36.4137C30.1811 34.2893 33.5927 33.1772 36.662 33.1495Z" fill="#171717"/>
<path fill-rule="evenodd" clip-rule="evenodd" d="M36.6749 34.6898C33.9523 34.7145 30.7907 35.7037 26.3557 37.8051C26.0993 37.9266 25.8152 38.0034 25.5329 38.0262C20.0896 38.4646 16.4519 39.4586 13.8072 41.4424C11.1742 43.4178 9.4105 46.462 7.918 51.2667C7.84394 51.505 7.73023 51.7353 7.58405 51.9406C5.90132 54.3029 4.71719 56.4975 4.01444 58.5232C5.53824 59.0901 6.638 59.2876 7.62467 59.1129C8.73426 58.9162 9.85175 58.2194 11.3417 56.6414C11.6338 56.3327 12.1217 56.3195 12.4308 56.6113C12.7392 56.9031 12.7533 57.3898 12.4624 57.6989C10.888 59.3663 9.48611 60.3484 7.89243 60.6307C6.54041 60.87 5.1594 60.5825 3.57971 60.0034C2.76831 63.3997 3.41405 66.2984 5.50366 68.7823C6.85163 70.3844 8.82781 71.8481 11.4831 73.1492C11.8514 73.3297 12.1709 73.6036 12.4037 73.9449C13.804 75.9982 14.8496 77.1645 15.9808 78.0079C17.0987 78.8412 18.3429 79.3915 20.2213 80.1425C20.2729 80.155 20.325 80.1727 20.3748 80.1966C22.2126 81.079 24.9106 81.0992 28.242 80.3606C31.0082 79.7472 34.1186 78.6273 37.3699 77.1731C33.9012 75.9588 31.6937 73.6892 30.1901 71.2929C29.8531 72.161 29.3989 72.8822 28.8227 73.4681C27.8726 74.4337 26.6629 74.9692 25.3193 75.2566C25.165 75.2896 25.0037 75.305 24.8424 75.3018C23.0652 75.2652 21.5925 74.6438 20.4906 73.4876C19.4044 72.3478 18.7345 70.7499 18.4207 68.8485C18.3516 68.429 18.6361 68.0319 19.0555 67.9625C19.4749 67.8936 19.8722 68.1779 19.9415 68.5973C20.2233 70.3051 20.7989 71.5794 21.6053 72.4256C22.396 73.2553 23.4647 73.7339 24.874 73.7629C24.913 73.7636 24.9558 73.7597 24.9974 73.7509C26.1451 73.5054 27.0471 73.0765 27.7246 72.388C28.3663 71.7355 28.8623 70.7878 29.1341 69.3795C28.6139 68.3119 28.1994 67.2661 27.8494 66.3258C27.4656 65.2946 27.1697 64.4366 26.8747 63.7581C26.4559 62.795 25.4093 61.9962 23.976 61.5784C21.3843 60.8231 18.0758 61.4576 16.4216 63.8844C16.1821 64.2354 15.7034 64.3265 15.3521 64.0875C15.0006 63.848 14.9094 63.368 15.149 63.0165C17.1384 60.0978 20.8178 59.3257 23.7533 59.9387C24.7841 57.6729 25.7764 55.8387 27.1304 54.3865C28.4409 52.9812 30.0528 51.9681 32.2705 51.2155C31.2125 49.4758 30.2439 48.1456 29.1566 47.2157C27.9423 46.1773 26.5568 45.6169 24.6559 45.6122C22.4253 45.7595 20.79 46.1214 19.5098 46.7268C18.2404 47.3273 17.274 48.1893 16.4156 49.4119C16.1712 49.76 15.6911 49.8442 15.343 49.6C14.9951 49.3556 14.9109 48.8755 15.155 48.5274C16.1442 47.1185 17.3072 46.0657 18.851 45.3354C20.379 44.6127 22.2358 44.2262 24.5822 44.0733L24.6063 44.0718H24.6318C26.9054 44.0719 28.6536 44.7598 30.157 46.0454C31.5084 47.2011 32.6376 48.8235 33.7958 50.7643C34.1476 50.673 34.5131 50.585 34.8924 50.5025L34.921 50.4965L34.951 50.492C40.8214 49.6766 45.228 50.7816 53.7062 53.9052C54.1048 54.0522 54.3098 54.4947 54.1635 54.8935C54.0164 55.2925 53.5727 55.4976 53.1737 55.3508C44.7479 52.2465 40.6466 51.2621 35.1872 52.0158C34.6381 52.1359 34.125 52.2637 33.6453 52.4009C31.1301 53.1204 29.5155 54.0872 28.2571 55.4365C27.1092 56.6676 26.2193 58.2562 25.238 60.393C26.5838 60.9501 27.7334 61.8697 28.2872 63.1428C28.6042 63.872 28.9296 64.8152 29.292 65.7888C29.6618 66.7821 30.0875 67.8571 30.6278 68.9342C32.2048 72.0777 34.7399 75.204 39.6759 76.2118C42.5714 76.1086 44.7306 75.836 46.779 75.2611C48.7454 74.7093 50.6418 73.8692 53.0172 72.5986C53.1018 70.7401 53.4921 68.6005 55.1021 67.0298C56.8594 65.3162 59.8585 64.4709 64.782 65.0322C65.2043 65.0806 65.5084 65.4627 65.4604 65.8851C65.4122 66.3074 65.0299 66.6113 64.6075 66.5635C59.8706 66.0235 57.4473 66.8944 56.1777 68.1325C55.0929 69.1906 54.702 70.6568 54.5816 72.2225C63.7957 71.3802 69.3586 69.12 72.1574 66.1965C73.5826 64.7077 74.3031 63.0392 74.4364 61.2505C74.5625 59.5562 74.1611 57.7107 73.2645 55.7659C69.7845 55.3477 67.5492 55.4302 65.9328 56.1074C64.3091 56.7879 63.1795 58.127 62.0623 60.5931C61.8868 60.9804 61.4298 61.1519 61.0424 60.9767C60.655 60.8012 60.4833 60.3443 60.6588 59.9568C61.8453 57.338 63.1939 55.5861 65.3386 54.6874C67.1414 53.9322 69.4082 53.827 72.4026 54.1203C70.8818 51.5339 68.5611 48.8561 65.5763 46.2485C65.4799 46.1642 65.3892 46.0717 65.307 45.9717C64.2635 44.7013 63.2995 43.589 62.3707 42.6187C60.4139 44.7588 58.6132 45.9749 56.6816 46.1793C54.5633 46.4032 52.5291 45.386 50.281 43.6732C49.9433 43.4155 49.878 42.9328 50.135 42.5946C50.3929 42.2566 50.8769 42.191 51.2151 42.4487C53.3987 44.1123 55.0194 44.8062 56.5191 44.648C57.9064 44.5011 59.3955 43.6013 61.2771 41.5326C59.4275 39.7969 57.6414 38.6595 55.4887 38.0488C53.1175 37.3761 50.2301 37.317 46.2225 37.9029C45.63 37.9894 45.0266 37.8455 44.5362 37.5102C41.7134 35.5799 39.3593 34.6657 36.6749 34.6898Z" fill="#EA8585"/>
<path d="M35.4182 63.325C38.9908 59.3284 44.4149 59.0444 49.4665 61.1197C49.8597 61.2813 50.0474 61.7313 49.8861 62.1246C49.7245 62.518 49.2747 62.7058 48.8813 62.5442C44.191 60.6174 39.5527 61.0128 36.5674 64.3524C36.284 64.6695 35.797 64.696 35.4798 64.4125C35.1629 64.129 35.1348 63.642 35.4182 63.325Z" fill="#171717"/>
<path fill-rule="evenodd" clip-rule="evenodd" d="M36.662 33.1495C39.7698 33.1215 42.4301 34.204 45.4063 36.2392C45.5812 36.3586 45.7956 36.4075 46.0005 36.3776C50.1102 35.7768 53.2431 35.8105 55.9105 36.5671C58.5935 37.3284 60.7325 38.8012 62.8903 40.9415C64.0527 42.0946 65.2277 43.4481 66.4975 44.994C66.5251 45.0275 66.557 45.0593 66.5908 45.0888C70.1635 48.2099 72.897 51.4963 74.4746 54.7115C75.5814 56.9674 76.1326 59.219 75.9728 61.3648C75.812 63.5242 74.9336 65.5265 73.2712 67.2631C69.9999 70.6797 63.7419 73.0257 53.9956 73.8231C51.456 75.1942 49.3842 76.1304 47.1964 76.7444C45.0062 77.359 42.7335 77.6416 39.8014 77.7492C35.8554 79.6308 31.9942 81.1053 28.5751 81.8634C25.1994 82.6118 22.1267 82.6896 19.8263 81.6363C19.8034 81.6295 19.7784 81.6257 19.7556 81.6167C17.8258 80.8472 16.3794 80.2271 15.0593 79.243C13.7321 78.2533 12.5748 76.929 11.1317 74.8129C11.0509 74.6944 10.9368 74.5961 10.8053 74.5316C8.02135 73.1675 5.85127 71.5873 4.32645 69.7752C1.69915 66.6525 1.06904 62.9375 2.31977 58.7565C3.04383 56.3364 4.39441 53.7645 6.33013 51.0471C6.38007 50.9769 6.42117 50.8941 6.44746 50.8095C7.98045 45.8745 9.87264 42.4688 12.8827 40.2104C15.8809 37.9612 19.8765 36.9361 25.4102 36.4904C25.5071 36.4824 25.6101 36.4551 25.6975 36.4137C30.1811 34.2893 33.5927 33.1772 36.662 33.1495Z" stroke="#171717" stroke-width="2"/>
<path fill-rule="evenodd" clip-rule="evenodd" d="M36.6749 34.6898C33.9523 34.7145 30.7907 35.7037 26.3557 37.8051C26.0993 37.9266 25.8152 38.0034 25.5329 38.0262C20.0896 38.4646 16.4519 39.4586 13.8072 41.4424C11.1742 43.4178 9.4105 46.462 7.918 51.2667C7.84394 51.505 7.73023 51.7353 7.58405 51.9406C5.90132 54.3029 4.71719 56.4975 4.01444 58.5232C5.53824 59.0901 6.638 59.2876 7.62467 59.1129C8.73426 58.9162 9.85175 58.2194 11.3417 56.6414C11.6338 56.3327 12.1217 56.3195 12.4308 56.6113C12.7392 56.9031 12.7533 57.3898 12.4624 57.6989C10.888 59.3663 9.48611 60.3484 7.89243 60.6307C6.54041 60.87 5.1594 60.5825 3.57971 60.0034C2.76831 63.3997 3.41405 66.2984 5.50366 68.7823C6.85163 70.3844 8.82781 71.8481 11.4831 73.1492C11.8514 73.3297 12.1709 73.6036 12.4037 73.9449C13.804 75.9982 14.8496 77.1645 15.9808 78.0079C17.0987 78.8412 18.3429 79.3915 20.2213 80.1425C20.2729 80.155 20.325 80.1727 20.3748 80.1966C22.2126 81.079 24.9106 81.0992 28.242 80.3606C31.0082 79.7472 34.1186 78.6273 37.3699 77.1731C33.9012 75.9588 31.6937 73.6892 30.1901 71.2929C29.8531 72.161 29.3989 72.8822 28.8227 73.4681C27.8726 74.4337 26.6629 74.9692 25.3193 75.2566C25.165 75.2896 25.0037 75.305 24.8424 75.3018C23.0652 75.2652 21.5925 74.6438 20.4906 73.4876C19.4044 72.3478 18.7345 70.7499 18.4207 68.8485C18.3516 68.429 18.6361 68.0319 19.0555 67.9625C19.4749 67.8936 19.8722 68.1779 19.9415 68.5973C20.2233 70.3051 20.7989 71.5794 21.6053 72.4256C22.396 73.2553 23.4647 73.7339 24.874 73.7629C24.913 73.7636 24.9558 73.7597 24.9974 73.7509C26.1451 73.5054 27.0471 73.0765 27.7246 72.388C28.3663 71.7355 28.8623 70.7878 29.1341 69.3795C28.6139 68.3119 28.1994 67.2661 27.8494 66.3258C27.4656 65.2946 27.1697 64.4366 26.8747 63.7581C26.4559 62.795 25.4093 61.9962 23.976 61.5784C21.3843 60.8231 18.0758 61.4576 16.4216 63.8844C16.1821 64.2354 15.7034 64.3265 15.3521 64.0875C15.0006 63.848 14.9094 63.368 15.149 63.0165C17.1384 60.0978 20.8178 59.3257 23.7533 59.9387C24.7841 57.6729 25.7764 55.8387 27.1304 54.3865C28.4409 52.9812 30.0528 51.9681 32.2705 51.2155C31.2125 49.4758 30.2439 48.1456 29.1566 47.2157C27.9423 46.1773 26.5568 45.6169 24.6559 45.6122C22.4253 45.7595 20.79 46.1214 19.5098 46.7268C18.2404 47.3273 17.274 48.1893 16.4156 49.4119C16.1712 49.76 15.6911 49.8442 15.343 49.6C14.9951 49.3556 14.9109 48.8755 15.155 48.5274C16.1442 47.1185 17.3072 46.0657 18.851 45.3354C20.379 44.6127 22.2358 44.2262 24.5822 44.0733L24.6063 44.0718H24.6318C26.9054 44.0719 28.6536 44.7598 30.157 46.0454C31.5084 47.2011 32.6376 48.8235 33.7958 50.7643C34.1476 50.673 34.5131 50.585 34.8924 50.5025L34.921 50.4965L34.951 50.492C40.8214 49.6766 45.228 50.7816 53.7062 53.9052C54.1048 54.0522 54.3098 54.4947 54.1635 54.8935C54.0164 55.2925 53.5727 55.4976 53.1737 55.3508C44.7479 52.2465 40.6466 51.2621 35.1872 52.0158C34.6381 52.1359 34.125 52.2637 33.6453 52.4009C31.1301 53.1204 29.5155 54.0872 28.2571 55.4365C27.1092 56.6676 26.2193 58.2562 25.238 60.393C26.5838 60.9501 27.7334 61.8697 28.2872 63.1428C28.6042 63.872 28.9296 64.8152 29.292 65.7888C29.6618 66.7821 30.0875 67.8571 30.6278 68.9342C32.2048 72.0777 34.7399 75.204 39.6759 76.2118C42.5714 76.1086 44.7306 75.836 46.779 75.2611C48.7454 74.7093 50.6418 73.8692 53.0172 72.5986C53.1018 70.7401 53.4921 68.6005 55.1021 67.0298C56.8594 65.3162 59.8585 64.4709 64.782 65.0322C65.2043 65.0806 65.5084 65.4627 65.4604 65.8851C65.4122 66.3074 65.0299 66.6113 64.6075 66.5635C59.8706 66.0235 57.4473 66.8944 56.1777 68.1325C55.0929 69.1906 54.702 70.6568 54.5816 72.2225C63.7957 71.3802 69.3586 69.12 72.1574 66.1965C73.5826 64.7077 74.3031 63.0392 74.4364 61.2505C74.5625 59.5562 74.1611 57.7107 73.2645 55.7659C69.7845 55.3477 67.5492 55.4302 65.9328 56.1074C64.3091 56.7879 63.1795 58.127 62.0623 60.5931C61.8868 60.9804 61.4298 61.1519 61.0424 60.9767C60.655 60.8012 60.4833 60.3443 60.6588 59.9568C61.8453 57.338 63.1939 55.5861 65.3386 54.6874C67.1414 53.9322 69.4082 53.827 72.4026 54.1203C70.8818 51.5339 68.5611 48.8561 65.5763 46.2485C65.4799 46.1642 65.3892 46.0717 65.307 45.9717C64.2635 44.7013 63.2995 43.589 62.3707 42.6187C60.4139 44.7588 58.6132 45.9749 56.6816 46.1793C54.5633 46.4032 52.5291 45.386 50.281 43.6732C49.9433 43.4155 49.878 42.9328 50.135 42.5946C50.3929 42.2566 50.8769 42.191 51.2151 42.4487C53.3987 44.1123 55.0194 44.8062 56.5191 44.648C57.9064 44.5011 59.3955 43.6013 61.2771 41.5326C59.4275 39.7969 57.6414 38.6595 55.4887 38.0488C53.1175 37.3761 50.2301 37.317 46.2225 37.9029C45.63 37.9894 45.0266 37.8455 44.5362 37.5102C41.7134 35.5799 39.3593 34.6657 36.6749 34.6898Z" stroke="#171717" stroke-width="2"/>
<path d="M35.4182 63.325C38.9908 59.3284 44.4149 59.0444 49.4665 61.1197C49.8597 61.2813 50.0474 61.7313 49.8861 62.1246C49.7245 62.518 49.2747 62.7058 48.8813 62.5442C44.191 60.6174 39.5527 61.0128 36.5674 64.3524C36.284 64.6695 35.797 64.696 35.4798 64.4125C35.1629 64.129 35.1348 63.642 35.4182 63.325Z" stroke="#171717" stroke-width="2"/>
</svg>
