<svg width="69" height="86" viewBox="0 0 69 86" fill="none" xmlns="http://www.w3.org/2000/svg">
<path d="M3.50866 51.4415C4.14712 55.1286 4.87884 57.7004 6.16755 60.1011C8.19445 63.8769 11.7609 67.4354 16.0444 67.309C18.2918 67.2427 20.0186 65.4503 21.5843 63.8251L21.6648 63.7415C23.7456 61.5826 25.5276 59.581 27.5827 56.2811C27.6181 56.2248 27.6527 56.1691 27.6867 56.1139C31.9247 49.2297 36.676 42.5562 44.4594 44.7404C47.9867 45.7303 50.7592 46.6092 53.6581 46.4966C61.8332 46.179 67.0682 37.4193 67.2487 29.24C67.2909 27.3263 67.2459 25.2201 67.1685 22.7759C66.7318 18.2808 66.0616 15.2421 63.9485 12.1737C61.6406 8.82259 58.0788 6.55687 54.3463 4.93709C49.4007 2.79093 44.7135 1.75309 36.5175 1.55603C29.8995 1.64678 25.7109 1.85681 18.7437 6.74564C15.9534 8.7036 13.5893 11.2045 11.5234 13.9158C7.81959 18.7766 5.45864 22.5232 3.50866 28.4843C1.74711 36.9681 1.62829 41.9622 3.50866 51.4415Z" fill="#593829" stroke="black" stroke-width="3" stroke-linecap="round"/>
<circle cx="45.2357" cy="13.5535" r="5.0111" fill="#4BAE32" stroke="black" stroke-width="3"/>
<circle cx="29.8399" cy="14.699" r="4.8633" fill="#E8466D" stroke="black" stroke-width="3"/>
<circle cx="11.8574" cy="36.573" r="4.8633" fill="#3268B4" stroke="black" stroke-width="3"/>
<circle cx="17.5362" cy="23.1127" r="4.8633" fill="#FFC55D" stroke="black" stroke-width="3"/>
<rect x="34.7041" y="73.1254" width="11.9919" height="10.5325" fill="#3268B4"/>
<path d="M47.2612 64.2843V71.3521H46.3089H34.6037H33.734V64.2843H36.5374L31.0537 48.9302L40.5586 27.1174L49.5762 48.9302L44.5799 64.2843H47.2612Z" fill="#C5C5C5"/>
<path d="M36.5374 64.2843H33.734V71.3521H34.6037M36.5374 64.2843L31.0537 48.9302L40.5586 27.1174M36.5374 64.2843H44.5799M40.5586 27.1174L49.5762 48.9302L44.5799 64.2843M40.5586 27.1174V45.5181M44.5799 64.2843H47.2612V71.3521H46.3089M34.6037 71.3521V83.6578M34.6037 71.3521H46.3089M46.3089 71.3521V83.6578" stroke="#171717" stroke-width="3" stroke-linecap="round"/>
<path d="M40.5312 45.4426C42.292 45.4427 43.7196 46.8703 43.7197 48.6311C43.7197 50.392 42.2921 51.8195 40.5312 51.8196C38.7703 51.8196 37.3428 50.3921 37.3428 48.6311C37.3429 46.8703 38.7704 45.4426 40.5312 45.4426ZM40.5312 47.4309C39.8682 47.4309 39.3303 47.968 39.3301 48.6311C39.3301 49.2943 39.868 49.8323 40.5312 49.8323C41.1943 49.8321 41.7314 49.2942 41.7314 48.6311C41.7313 47.9681 41.1942 47.4311 40.5312 47.4309Z" fill="#171717"/>
</svg>
